<?xml version="1.0" standalone="no"?>
<!DOCTYPE svg PUBLIC "-//W3C//DTD SVG 20010904//EN"
 "http://www.w3.org/TR/2001/REC-SVG-20010904/DTD/svg10.dtd">
<svg version="1.0" xmlns="http://www.w3.org/2000/svg"
 width="260.000000pt" height="260.000000pt" viewBox="0 0 260.000000 260.000000"
 preserveAspectRatio="xMidYMid meet">
<metadata>
Created by potrace 1.11, written by Peter Selinger 2001-2013
</metadata>
<g transform="translate(0.000000,260.000000) scale(0.100000,-0.100000)"
fill="#000000" stroke="none">
<path d="M1472 2310 c-132 -31 -350 -155 -502 -284 -84 -72 -312 -310 -393
-411 -170 -211 -303 -432 -356 -593 -86 -257 -66 -488 55 -622 130 -144 385
-162 631 -44 89 43 128 66 233 143 104 75 128 97 355 325 110 111 209 208 219
216 18 14 19 13 12 -5 -77 -191 -92 -286 -56 -361 66 -136 242 -65 513 206 82
83 87 91 87 130 0 40 -1 41 -18 29 -11 -8 -57 -43 -103 -78 -92 -70 -170 -111
-210 -111 -58 0 -79 73 -52 180 16 64 93 226 150 320 l40 65 86 -3 85 -3 49
68 c59 82 127 193 121 198 -2 3 -29 7 -59 11 -29 3 -55 7 -57 9 -1 1 27 42 63
91 80 109 82 117 19 128 -74 14 -155 -41 -223 -149 l-41 -65 -53 -1 c-95 -1
-164 -12 -198 -29 -39 -20 -96 -89 -134 -161 -44 -84 -45 -104 -7 -95 15 4 67
10 116 13 l88 6 -12 -22 c-58 -110 -328 -414 -475 -536 -33 -28 -65 -54 -71
-60 -60 -56 -228 -170 -321 -218 -122 -63 -237 -95 -327 -92 -113 4 -179 43
-225 132 -21 42 -40 144 -36 192 17 193 81 345 251 601 251 378 690 775 824
745 127 -28 -9 -328 -271 -597 -67 -70 -84 -74 -64 -18 8 22 10 42 6 45 -18
10 -176 -143 -257 -250 -62 -81 -87 -132 -88 -182 0 -47 27 -85 73 -101 65
-23 192 59 372 238 152 152 191 197 274 321 95 140 146 249 172 364 9 45 4
153 -11 193 -44 122 -124 157 -274 122z"/>
</g>
</svg>
